<?xml version="1.0" encoding="UTF-8" standalone="no"?>
<svg
   xmlns:dc="http://purl.org/dc/elements/1.1/"
   xmlns:cc="http://creativecommons.org/ns#"
   xmlns:rdf="http://www.w3.org/1999/02/22-rdf-syntax-ns#"
   xmlns:svg="http://www.w3.org/2000/svg"
   xmlns="http://www.w3.org/2000/svg"
   xmlns:sodipodi="http://sodipodi.sourceforge.net/DTD/sodipodi-0.dtd"
   xmlns:inkscape="http://www.inkscape.org/namespaces/inkscape"
   version="1.1"
   viewBox="0 0 85.344147 63.05661"
   stroke-miterlimit="10"
   id="svg183"
   sodipodi:docname="2019-07-27_scprep-grant-figure.svg"
   width="85.344147"
   height="63.05661"
   style="fill:none;stroke:none;stroke-linecap:square;stroke-miterlimit:10"
   inkscape:version="0.92.4 (f8dce91, 2019-08-02)">
  <metadata
     id="metadata189">
    <rdf:RDF>
      <cc:Work
         rdf:about="">
        <dc:format>image/svg+xml</dc:format>
        <dc:type
           rdf:resource="http://purl.org/dc/dcmitype/StillImage" />
        <dc:title></dc:title>
      </cc:Work>
    </rdf:RDF>
  </metadata>
  <defs
     id="defs187" />
  <sodipodi:namedview
     pagecolor="#ffffff"
     bordercolor="#666666"
     borderopacity="1"
     objecttolerance="10"
     gridtolerance="10"
     guidetolerance="10"
     inkscape:pageopacity="0"
     inkscape:pageshadow="2"
     inkscape:window-width="1855"
     inkscape:window-height="1056"
     id="namedview185"
     showgrid="false"
     fit-margin-top="1"
     fit-margin-left="1"
     fit-margin-right="1"
     fit-margin-bottom="1"
     inkscape:zoom="6.9060762"
     inkscape:cx="68.136508"
     inkscape:cy="27.181838"
     inkscape:window-x="65"
     inkscape:window-y="24"
     inkscape:window-maximized="1"
     inkscape:current-layer="svg183" />
  <clipPath
     id="g621b251bf0_0_0.0">
    <path
       d="M 0,0 H 960 V 540 H 0 Z"
       id="path2"
       inkscape:connector-curvature="0"
       style="clip-rule:nonzero" />
  </clipPath>
  <path
     style="fill:#434343;fill-rule:nonzero"
     inkscape:connector-curvature="0"
     id="path179"
     d="m 6.59375,57.72849 q -1.57813,0 -3.125,-0.35938 Q 1.9375,57.00974 1,56.43161 l 1.32812,-3.03125 q 0.85938,0.53125 2.04688,0.84375 1.20312,0.3125 2.35937,0.3125 1.07813,0 1.53125,-0.21875 0.45313,-0.21875 0.45313,-0.64062 0,-0.42188 -0.54688,-0.59375 Q 7.625,52.93161 6.4375,52.75974 4.92187,52.57224 3.85937,52.27536 2.79687,51.97849 2.01562,51.16599 1.25,50.33786 1.25,48.86911 q 0,-1.21875 0.71875,-2.15625 0.73437,-0.9375 2.125,-1.48437 1.39062,-0.5625 3.3125,-0.5625 1.39062,0 2.73437,0.28125 1.35938,0.28125 2.26563,0.79687 l -1.32813,3.01563 q -1.6875,-0.9375 -3.64062,-0.9375 -1.04688,0 -1.54688,0.25 -0.48437,0.23437 -0.48437,0.64062 0,0.4375 0.53125,0.60938 0.54687,0.17187 1.78125,0.35937 1.5625,0.23438 2.57812,0.54688 1.03125,0.29687 1.78125,1.10937 0.76563,0.79688 0.76563,2.25 0,1.1875 -0.71875,2.14063 -0.71875,0.9375 -2.14063,1.46875 -1.40625,0.53125 -3.39062,0.53125 z m 14.63544,0 q -2.10938,0 -3.76563,-0.82813 -1.65625,-0.84375 -2.57812,-2.32812 -0.92188,-1.5 -0.92188,-3.39063 0,-1.89062 0.92188,-3.375 0.92187,-1.48437 2.57812,-2.3125 1.65625,-0.82812 3.76563,-0.82812 2.14062,0 3.70312,0.92187 1.5625,0.92188 2.21875,2.5625 l -3.4375,1.75 q -0.85937,-1.70312 -2.51562,-1.70312 -1.1875,0 -1.96875,0.79687 -0.78125,0.78125 -0.78125,2.1875 0,1.42188 0.78125,2.23438 0.78125,0.79687 1.96875,0.79687 1.65625,0 2.51562,-1.70312 l 3.4375,1.75 q -0.65625,1.625 -2.21875,2.54687 -1.5625,0.92188 -3.70312,0.92188 z M 36.7804,44.66599 q 1.73437,0 3.14062,0.8125 1.40625,0.79687 2.23438,2.28125 0.82812,1.48437 0.82812,3.4375 0,1.96875 -0.82812,3.45312 -0.82813,1.46875 -2.23438,2.28125 -1.40625,0.79688 -3.14062,0.79688 -2.21875,0 -3.51563,-1.32813 v 5.65625 h -4.4375 V 44.88474 h 4.21875 v 1.25 q 1.23438,-1.46875 3.73438,-1.46875 z m -0.9375,9.54687 q 1.17187,0 1.92187,-0.79687 0.75,-0.8125 0.75,-2.21875 0,-1.39063 -0.75,-2.1875 -0.75,-0.8125 -1.92187,-0.8125 -1.15625,0 -1.90625,0.8125 -0.75,0.79687 -0.75,2.1875 0,1.40625 0.75,2.21875 0.75,0.79687 1.90625,0.79687 z m 13.41613,-7.8125 q 0.6875,-0.85937 1.76563,-1.29687 1.07812,-0.4375 2.48437,-0.4375 v 4 q -0.60937,-0.0781 -1,-0.0781 -1.42187,0 -2.23437,0.78125 -0.79688,0.76563 -0.79688,2.34375 v 5.8125 h -4.4375 V 44.88477 h 4.21875 z m 18.87412,4.82813 q 0,0.0469 -0.0625,1.09375 h -9.20313 q 0.28125,0.98437 1.07813,1.51562 0.8125,0.51563 2.03125,0.51563 0.90625,0 1.5625,-0.25 0.67187,-0.26563 1.35937,-0.84375 l 2.32813,2.42187 q -1.84375,2.04688 -5.39063,2.04688 -2.21875,0 -3.90625,-0.82813 -1.67187,-0.84375 -2.59375,-2.32812 -0.92187,-1.5 -0.92187,-3.39063 0,-1.875 0.89062,-3.34375 0.90625,-1.48437 2.48438,-2.32812 1.59375,-0.84375 3.57812,-0.84375 1.89063,0 3.42188,0.78125 1.54687,0.78125 2.4375,2.26562 0.90625,1.48438 0.90625,3.51563 z m -6.73438,-3.40625 q -1.03125,0 -1.71875,0.59375 -0.6875,0.57812 -0.875,1.57812 h 5.17188 q -0.1875,-1 -0.875,-1.57812 -0.6875,-0.59375 -1.70313,-0.59375 z m 16.74225,-3.15625 q 1.73438,0 3.14063,0.8125 1.40625,0.79687 2.23437,2.28125 0.82813,1.48437 0.82813,3.4375 0,1.96875 -0.82813,3.45312 -0.82812,1.46875 -2.23437,2.28125 -1.40625,0.79688 -3.14063,0.79688 -2.21875,0 -3.51562,-1.32813 v 5.65625 H 70.1879 V 44.88474 h 4.21875 v 1.25 q 1.23437,-1.46875 3.73437,-1.46875 z m -0.9375,9.54687 q 1.17188,0 1.92188,-0.79687 0.75,-0.8125 0.75,-2.21875 0,-1.39063 -0.75,-2.1875 -0.75,-0.8125 -1.92188,-0.8125 -1.15625,0 -1.90625,0.8125 -0.75,0.79687 -0.75,2.1875 0,1.40625 0.75,2.21875 0.75,0.79687 1.90625,0.79687 z" />
  <path
     style="fill:#fbe39b;fill-rule:evenodd"
     inkscape:connector-curvature="0"
     id="path7"
     d="m 2.12147,29.45289 h 6.85776 v 5.57919 H 2.12147 Z" />
  <path
     style="fill:#ffd966;fill-rule:evenodd"
     inkscape:connector-curvature="0"
     id="path9"
     d="m 8.97923,29.45289 h 6.85776 v 5.57919 H 8.97923 Z" />
  <path
     style="fill:#f88916;fill-rule:evenodd"
     inkscape:connector-curvature="0"
     id="path11"
     d="m 15.73771,29.45289 h 6.85773 v 5.57919 h -6.85773 z" />
  <path
     style="fill:#d44242;fill-rule:evenodd"
     inkscape:connector-curvature="0"
     id="path13"
     d="m 22.59545,29.45289 h 6.85776 v 5.57919 h -6.85776 z" />
  <path
     style="fill:#ed7b7b;fill-rule:evenodd"
     inkscape:connector-curvature="0"
     id="path15"
     d="m 29.35393,29.45289 h 6.85776 v 5.57919 h -6.85776 z" />
  <path
     style="fill:#d44242;fill-rule:evenodd"
     inkscape:connector-curvature="0"
     id="path17"
     d="m 36.21168,29.45289 h 6.85773 v 5.57919 h -6.85773 z" />
  <path
     style="fill:#ed7b7b;fill-rule:evenodd"
     inkscape:connector-curvature="0"
     id="path19"
     d="m 43.06941,29.45289 h 6.85776 v 5.57919 h -6.85776 z" />
  <path
     style="fill:#f1c232;fill-rule:evenodd"
     inkscape:connector-curvature="0"
     id="path21"
     d="m 49.82789,29.45289 h 6.85776 v 5.57919 h -6.85776 z" />
  <path
     style="fill:#ea5335;fill-rule:evenodd"
     inkscape:connector-curvature="0"
     id="path23"
     d="m 56.68565,29.45289 h 6.85776 v 5.57919 h -6.85776 z" />
  <path
     style="fill:#f88916;fill-rule:evenodd"
     inkscape:connector-curvature="0"
     id="path25"
     d="m 63.4441,29.45289 h 6.85776 v 5.57919 H 63.4441 Z" />
  <path
     style="fill:#ffd966;fill-rule:evenodd"
     inkscape:connector-curvature="0"
     id="path27"
     d="m 70.30185,29.45289 h 6.85776 v 5.57919 h -6.85776 z" />
  <path
     style="fill:#d44242;fill-rule:evenodd"
     inkscape:connector-curvature="0"
     id="path29"
     d="m 77.06035,29.45289 h 6.85773 v 5.57919 h -6.85773 z" />
  <path
     style="fill:#ea5335;fill-rule:evenodd"
     inkscape:connector-curvature="0"
     id="path31"
     d="m 2.12147,35.03208 h 6.85776 v 5.57919 H 2.12147 Z" />
  <path
     style="fill:#e66b23;fill-rule:evenodd"
     inkscape:connector-curvature="0"
     id="path33"
     d="m 8.97923,35.03208 h 6.85776 v 5.57919 H 8.97923 Z" />
  <path
     style="fill:#f88916;fill-rule:evenodd"
     inkscape:connector-curvature="0"
     id="path35"
     d="m 15.73771,35.03208 h 6.85773 v 5.57919 h -6.85773 z" />
  <path
     style="fill:#f1c232;fill-rule:evenodd"
     inkscape:connector-curvature="0"
     id="path37"
     d="m 22.59545,35.03208 h 6.85776 v 5.57919 h -6.85776 z" />
  <path
     style="fill:#f88916;fill-rule:evenodd"
     inkscape:connector-curvature="0"
     id="path39"
     d="m 29.35393,35.03208 h 6.85776 v 5.57919 h -6.85776 z" />
  <path
     style="fill:#f1c232;fill-rule:evenodd"
     inkscape:connector-curvature="0"
     id="path41"
     d="m 36.21168,35.03208 h 6.85773 v 5.57919 h -6.85773 z" />
  <path
     style="fill:#e66b23;fill-rule:evenodd"
     inkscape:connector-curvature="0"
     id="path43"
     d="m 43.06941,35.03208 h 6.85776 v 5.57919 h -6.85776 z" />
  <path
     style="fill:#ffd966;fill-rule:evenodd"
     inkscape:connector-curvature="0"
     id="path45"
     d="m 49.82789,35.03208 h 6.85776 v 5.57919 h -6.85776 z" />
  <path
     style="fill:#d44242;fill-rule:evenodd"
     inkscape:connector-curvature="0"
     id="path47"
     d="m 56.68565,35.03208 h 6.85776 v 5.57919 h -6.85776 z" />
  <path
     style="fill:#e66b23;fill-rule:evenodd"
     inkscape:connector-curvature="0"
     id="path49"
     d="m 63.4441,35.03208 h 6.85776 v 5.57919 H 63.4441 Z" />
  <path
     style="fill:#fbe39b;fill-rule:evenodd"
     inkscape:connector-curvature="0"
     id="path51"
     d="m 70.30185,35.03208 h 6.85776 v 5.57919 h -6.85776 z" />
  <path
     style="fill:#ffab40;fill-rule:evenodd"
     inkscape:connector-curvature="0"
     id="path53"
     d="m 77.06035,35.03208 h 6.85773 v 5.57919 h -6.85773 z" />
  <path
     style="fill:#f88916;fill-rule:evenodd"
     inkscape:connector-curvature="0"
     id="path55"
     d="M 2.12147,18.29451 H 8.97923 V 23.8737 H 2.12147 Z" />
  <path
     style="fill:#f1c232;fill-rule:evenodd"
     inkscape:connector-curvature="0"
     id="path57"
     d="m 8.97923,18.29451 h 6.85776 V 23.8737 H 8.97923 Z" />
  <path
     style="fill:#fbe39b;fill-rule:evenodd"
     inkscape:connector-curvature="0"
     id="path59"
     d="m 15.73771,18.29451 h 6.85773 v 5.57919 h -6.85773 z" />
  <path
     style="fill:#d44242;fill-rule:evenodd"
     inkscape:connector-curvature="0"
     id="path61"
     d="m 22.59545,18.29451 h 6.85776 v 5.57919 h -6.85776 z" />
  <path
     style="fill:#fbe39b;fill-rule:evenodd"
     inkscape:connector-curvature="0"
     id="path63"
     d="m 29.35393,18.29451 h 6.85776 v 5.57919 h -6.85776 z" />
  <path
     style="fill:#f88916;fill-rule:evenodd"
     inkscape:connector-curvature="0"
     id="path65"
     d="m 36.21168,18.29451 h 6.85773 v 5.57919 h -6.85773 z" />
  <path
     style="fill:#ea5335;fill-rule:evenodd"
     inkscape:connector-curvature="0"
     id="path67"
     d="m 43.06941,18.29451 h 6.85776 v 5.57919 h -6.85776 z" />
  <path
     style="fill:#e66b23;fill-rule:evenodd"
     inkscape:connector-curvature="0"
     id="path69"
     d="m 49.82789,18.29451 h 6.85776 v 5.57919 h -6.85776 z" />
  <path
     style="fill:#ed7b7b;fill-rule:evenodd"
     inkscape:connector-curvature="0"
     id="path71"
     d="m 56.68565,18.29451 h 6.85776 v 5.57919 h -6.85776 z" />
  <path
     style="fill:#ffd966;fill-rule:evenodd"
     inkscape:connector-curvature="0"
     id="path73"
     d="m 63.4441,18.29451 h 6.85776 V 23.8737 H 63.4441 Z" />
  <path
     style="fill:#ed7b7b;fill-rule:evenodd"
     inkscape:connector-curvature="0"
     id="path75"
     d="m 70.30185,18.29451 h 6.85776 v 5.57919 h -6.85776 z" />
  <path
     style="fill:#f1c232;fill-rule:evenodd"
     inkscape:connector-curvature="0"
     id="path77"
     d="m 77.06035,18.29451 h 6.85773 v 5.57919 h -6.85773 z" />
  <path
     style="fill:#ffab40;fill-rule:evenodd"
     inkscape:connector-curvature="0"
     id="path79"
     d="m 2.12147,23.87371 h 6.85776 v 5.57918 H 2.12147 Z" />
  <path
     style="fill:#ed7b7b;fill-rule:evenodd"
     inkscape:connector-curvature="0"
     id="path81"
     d="m 8.97923,23.87371 h 6.85776 v 5.57918 H 8.97923 Z" />
  <path
     style="fill:#f1c232;fill-rule:evenodd"
     inkscape:connector-curvature="0"
     id="path83"
     d="m 15.73771,23.87371 h 6.85773 v 5.57918 h -6.85773 z" />
  <path
     style="fill:#ffd966;fill-rule:evenodd"
     inkscape:connector-curvature="0"
     id="path85"
     d="m 22.59545,23.87371 h 6.85776 v 5.57918 h -6.85776 z" />
  <path
     style="fill:#ea5335;fill-rule:evenodd"
     inkscape:connector-curvature="0"
     id="path87"
     d="m 29.35393,23.87371 h 6.85776 v 5.57918 h -6.85776 z" />
  <path
     style="fill:#ffab40;fill-rule:evenodd"
     inkscape:connector-curvature="0"
     id="path89"
     d="m 36.21168,23.87371 h 6.85773 v 5.57918 h -6.85773 z" />
  <path
     style="fill:#fbe39b;fill-rule:evenodd"
     inkscape:connector-curvature="0"
     id="path91"
     d="m 43.06941,23.87371 h 6.85776 v 5.57918 h -6.85776 z" />
  <path
     style="fill:#ffd966;fill-rule:evenodd"
     inkscape:connector-curvature="0"
     id="path93"
     d="m 49.82789,23.87371 h 6.85776 v 5.57918 h -6.85776 z" />
  <path
     style="fill:#d44242;fill-rule:evenodd"
     inkscape:connector-curvature="0"
     id="path95"
     d="m 56.68565,23.87371 h 6.85776 v 5.57918 h -6.85776 z" />
  <path
     style="fill:#e66b23;fill-rule:evenodd"
     inkscape:connector-curvature="0"
     id="path97"
     d="m 63.4441,23.87371 h 6.85776 v 5.57918 H 63.4441 Z" />
  <path
     style="fill:#f88916;fill-rule:evenodd"
     inkscape:connector-curvature="0"
     id="path99"
     d="m 70.30185,23.87371 h 6.85776 v 5.57918 h -6.85776 z" />
  <path
     style="fill:#ea5335;fill-rule:evenodd"
     inkscape:connector-curvature="0"
     id="path101"
     d="m 77.06035,23.87371 h 6.85773 v 5.57918 h -6.85773 z" />
  <path
     style="fill:#e66b23;fill-rule:evenodd"
     inkscape:connector-curvature="0"
     id="path103"
     d="m 2.12147,7.13494 h 6.85776 v 5.57918 H 2.12147 Z" />
  <path
     style="fill:#d44242;fill-rule:evenodd"
     inkscape:connector-curvature="0"
     id="path105"
     d="m 8.97923,7.13494 h 6.85776 v 5.57918 H 8.97923 Z" />
  <path
     style="fill:#f88916;fill-rule:evenodd"
     inkscape:connector-curvature="0"
     id="path107"
     d="m 15.73771,7.13494 h 6.85773 v 5.57918 h -6.85773 z" />
  <path
     style="fill:#f1c232;fill-rule:evenodd"
     inkscape:connector-curvature="0"
     id="path109"
     d="m 22.59545,7.13494 h 6.85776 v 5.57918 h -6.85776 z" />
  <path
     style="fill:#ed7b7b;fill-rule:evenodd"
     inkscape:connector-curvature="0"
     id="path111"
     d="m 29.35393,7.13494 h 6.85776 v 5.57918 h -6.85776 z" />
  <path
     style="fill:#f1c232;fill-rule:evenodd"
     inkscape:connector-curvature="0"
     id="path113"
     d="m 36.21168,7.13494 h 6.85773 v 5.57918 h -6.85773 z" />
  <path
     style="fill:#ed7b7b;fill-rule:evenodd"
     inkscape:connector-curvature="0"
     id="path115"
     d="m 43.06941,7.13494 h 6.85776 v 5.57918 h -6.85776 z" />
  <path
     style="fill:#ea5335;fill-rule:evenodd"
     inkscape:connector-curvature="0"
     id="path117"
     d="m 49.82789,7.13494 h 6.85776 v 5.57918 h -6.85776 z" />
  <path
     style="fill:#fbe39b;fill-rule:evenodd"
     inkscape:connector-curvature="0"
     id="path119"
     d="m 56.68565,7.13494 h 6.85776 v 5.57918 h -6.85776 z" />
  <path
     style="fill:#f1c232;fill-rule:evenodd"
     inkscape:connector-curvature="0"
     id="path121"
     d="m 63.4441,7.13494 h 6.85776 v 5.57918 H 63.4441 Z" />
  <path
     style="fill:#d44242;fill-rule:evenodd"
     inkscape:connector-curvature="0"
     id="path123"
     d="m 70.30185,7.13494 h 6.85776 v 5.57918 h -6.85776 z" />
  <path
     style="fill:#fbe39b;fill-rule:evenodd"
     inkscape:connector-curvature="0"
     id="path125"
     d="m 77.06035,7.13494 h 6.85773 v 5.57918 h -6.85773 z" />
  <path
     style="fill:#ea5335;fill-rule:evenodd"
     inkscape:connector-curvature="0"
     id="path127"
     d="M 2.12147,12.71411 H 8.97923 V 18.2933 H 2.12147 Z" />
  <path
     style="fill:#ffd966;fill-rule:evenodd"
     inkscape:connector-curvature="0"
     id="path129"
     d="m 8.97923,12.71411 h 6.85776 V 18.2933 H 8.97923 Z" />
  <path
     style="fill:#e66b23;fill-rule:evenodd"
     inkscape:connector-curvature="0"
     id="path131"
     d="m 15.73771,12.71411 h 6.85773 v 5.57919 h -6.85773 z" />
  <path
     style="fill:#ffd966;fill-rule:evenodd"
     inkscape:connector-curvature="0"
     id="path133"
     d="m 22.59545,12.71411 h 6.85776 v 5.57919 h -6.85776 z" />
  <path
     style="fill:#ea5335;fill-rule:evenodd"
     inkscape:connector-curvature="0"
     id="path135"
     d="m 29.35393,12.71411 h 6.85776 v 5.57919 h -6.85776 z" />
  <path
     style="fill:#f88916;fill-rule:evenodd"
     inkscape:connector-curvature="0"
     id="path137"
     d="m 36.21168,12.71411 h 6.85773 v 5.57919 h -6.85773 z" />
  <path
     style="fill:#fbe39b;fill-rule:evenodd"
     inkscape:connector-curvature="0"
     id="path139"
     d="m 43.06941,12.71411 h 6.85776 v 5.57919 h -6.85776 z" />
  <path
     style="fill:#f1c232;fill-rule:evenodd"
     inkscape:connector-curvature="0"
     id="path141"
     d="m 49.82789,12.71411 h 6.85776 v 5.57919 h -6.85776 z" />
  <path
     style="fill:#ffab40;fill-rule:evenodd"
     inkscape:connector-curvature="0"
     id="path143"
     d="m 56.68565,12.71411 h 6.85776 v 5.57919 h -6.85776 z" />
  <path
     style="fill:#ffd966;fill-rule:evenodd"
     inkscape:connector-curvature="0"
     id="path145"
     d="m 63.4441,12.71411 h 6.85776 V 18.2933 H 63.4441 Z" />
  <path
     style="fill:#ffab40;fill-rule:evenodd"
     inkscape:connector-curvature="0"
     id="path147"
     d="m 70.30185,12.71411 h 6.85776 v 5.57919 h -6.85776 z" />
  <path
     style="fill:#f88916;fill-rule:evenodd"
     inkscape:connector-curvature="0"
     id="path149"
     d="m 77.06035,12.71411 h 6.85773 v 5.57919 h -6.85773 z" />
  <path
     style="fill:#f1c232;fill-rule:evenodd"
     inkscape:connector-curvature="0"
     id="path151"
     d="M 2.12147,1.55574 H 8.97923 V 7.13493 H 2.12147 Z" />
  <path
     style="fill:#ffd966;fill-rule:evenodd"
     inkscape:connector-curvature="0"
     id="path153"
     d="m 8.97923,1.55574 h 6.85776 V 7.13493 H 8.97923 Z" />
  <path
     style="fill:#ea5335;fill-rule:evenodd"
     inkscape:connector-curvature="0"
     id="path155"
     d="m 15.73771,1.55574 h 6.85773 v 5.57919 h -6.85773 z" />
  <path
     style="fill:#d44242;fill-rule:evenodd"
     inkscape:connector-curvature="0"
     id="path157"
     d="m 22.59545,1.55574 h 6.85776 v 5.57919 h -6.85776 z" />
  <path
     style="fill:#ffab40;fill-rule:evenodd"
     inkscape:connector-curvature="0"
     id="path159"
     d="m 29.35393,1.55574 h 6.85776 v 5.57919 h -6.85776 z" />
  <path
     style="fill:#ffd966;fill-rule:evenodd"
     inkscape:connector-curvature="0"
     id="path161"
     d="m 36.21168,1.55574 h 6.85773 v 5.57919 h -6.85773 z" />
  <path
     style="fill:#e66b23;fill-rule:evenodd"
     inkscape:connector-curvature="0"
     id="path163"
     d="m 43.06941,1.55574 h 6.85776 v 5.57919 h -6.85776 z" />
  <path
     style="fill:#d44242;fill-rule:evenodd"
     inkscape:connector-curvature="0"
     id="path165"
     d="m 49.82789,1.55574 h 6.85776 v 5.57919 h -6.85776 z" />
  <path
     style="fill:#ffab40;fill-rule:evenodd"
     inkscape:connector-curvature="0"
     id="path167"
     d="m 56.68565,1.55574 h 6.85776 v 5.57919 h -6.85776 z" />
  <path
     style="fill:#fbe39b;fill-rule:evenodd"
     inkscape:connector-curvature="0"
     id="path169"
     d="m 63.4441,1.55574 h 6.85776 V 7.13493 H 63.4441 Z" />
  <path
     style="fill:#ed7b7b;fill-rule:evenodd"
     inkscape:connector-curvature="0"
     id="path171"
     d="m 70.30185,1.55574 h 6.85776 v 5.57919 h -6.85776 z" />
  <path
     style="fill:#e66b23;fill-rule:evenodd"
     inkscape:connector-curvature="0"
     id="path173"
     d="m 77.06035,1.55574 h 6.85773 v 5.57919 h -6.85773 z" />
  <path
     style="fill:#000000;fill-opacity:0;fill-rule:evenodd"
     inkscape:connector-curvature="0"
     id="path175"
     d="M 1.74495,1 H 84.20161 V 41.09448 H 1.74495 Z" />
</svg>
